<svg width="98" height="76" viewBox="0 0 98 76" fill="none" xmlns="http://www.w3.org/2000/svg">
<path d="M97.8143 2.07491C97.8556 1.24751 97.2184 0.543241 96.391 0.501871C95.5637 0.460502 94.8594 1.0977 94.818 1.92509L97.8143 2.07491ZM55.3867 48.0569L55.0543 46.5942L55.3867 48.0569ZM21.1139 58.6715L21.9569 59.9122L21.1139 58.6715ZM0.926145 71.3643C0.782176 72.1802 1.32682 72.9582 2.14264 73.1022L15.4372 75.4483C16.253 75.5923 17.0311 75.0476 17.1751 74.2318C17.319 73.416 16.7744 72.6379 15.9586 72.4939L4.14117 70.4085L6.2266 58.5911C6.37057 57.7753 5.82592 56.9972 5.0101 56.8533C4.19428 56.7093 3.41622 57.2539 3.27225 58.0698L0.926145 71.3643ZM94.818 1.92509C94.1539 15.2065 90.4189 24.894 83.8613 31.9729C77.2846 39.0724 67.7133 43.7171 55.0543 46.5942L55.7191 49.5196C68.7074 46.5677 78.9242 41.7169 86.0621 34.0116C93.2191 26.2857 97.1251 15.8592 97.8143 2.07491L94.818 1.92509ZM55.0543 46.5942C52.1392 47.2567 49.192 47.8157 46.2126 48.3968C43.2441 48.9757 40.251 49.5752 37.2992 50.3117C31.3934 51.7852 25.5789 53.8242 20.2709 57.4308L21.9569 59.9122C26.8551 56.584 32.2899 54.6535 38.0255 53.2224C40.8945 52.5066 43.82 51.9199 46.7868 51.3413C49.7426 50.7649 52.7472 50.195 55.7191 49.5196L55.0543 46.5942ZM20.2709 57.4308C13.9903 61.6984 7.75575 66.0473 1.54313 70.3962L3.26351 72.8539C9.47509 68.5058 15.6949 64.1672 21.9569 59.9122L20.2709 57.4308Z" fill="#007BFF"/>
</svg>
